<svg width="215" height="50" viewBox="0 0 215 50" fill="none" xmlns="http://www.w3.org/2000/svg">
<path d="M44.0476 3.60384V7.22839C38.1111 12.0987 21.1386 26.0225 17.6957 28.8469C13.8792 25.9049 1.14199 16.0864 0 15.2062V3.60354C0 3.60384 8.54869 0 22.024 0C35.4992 0 44.0476 3.60384 44.0476 3.60384Z" fill="#3383D9"/>
<path d="M17.698 39.2212C18.0655 38.8415 35.7427 20.7512 44.0478 12.2491V18.4109C44.0478 44.9445 22.0239 50 22.0239 50C22.0239 50 0.886446 45.148 0.0273438 20.0021C5.18375 25.611 17.0419 38.5009 17.698 39.2212Z" fill="#0F55A6"/>
<path d="M17.6988 39.2212C17.6898 39.2305 17.6894 39.2305 17.6988 39.2212Z" fill="white"/>
<path d="M54.3355 36L57.9577 14.1818H73.1707L72.4463 18.4645H62.5067L61.7822 22.9389H70.9442L70.2197 27.2322H61.0578L60.3334 31.7173H70.273L69.5486 36H54.3355ZM85.4541 23.0881L84.8042 27.0938H74.7155L75.3653 23.0881H85.4541ZM109.097 22.0866H103.834C103.862 21.5327 103.809 21.0391 103.674 20.6058C103.539 20.1655 103.326 19.7891 103.035 19.4766C102.744 19.157 102.381 18.9155 101.948 18.7521C101.515 18.5888 101.011 18.5071 100.435 18.5071C99.3346 18.5071 98.3367 18.7805 97.4419 19.3274C96.547 19.8743 95.7977 20.6626 95.194 21.6925C94.5903 22.7223 94.1677 23.9581 93.9262 25.3999C93.7061 26.7919 93.7096 27.9531 93.9369 28.8835C94.1713 29.8139 94.6045 30.5135 95.2366 30.9822C95.8687 31.4439 96.6713 31.6747 97.6443 31.6747C98.2764 31.6747 98.8623 31.6001 99.4021 31.451C99.949 31.2947 100.443 31.071 100.883 30.7798C101.323 30.4886 101.703 30.1371 102.023 29.7251C102.35 29.3061 102.602 28.8409 102.779 28.3295H108.085C107.822 29.2884 107.389 30.2436 106.785 31.1953C106.188 32.1399 105.435 32.9957 104.526 33.7628C103.617 34.5298 102.563 35.1442 101.362 35.6058C100.162 36.0675 98.8268 36.2983 97.3566 36.2983C95.3467 36.2983 93.6137 35.8473 92.1578 34.9453C90.7089 34.0433 89.6613 32.7365 89.015 31.0249C88.3758 29.3061 88.2551 27.2251 88.6528 24.782C89.0434 22.4169 89.814 20.4247 90.9646 18.8054C92.1222 17.1861 93.5285 15.9609 95.1833 15.13C96.8453 14.299 98.6173 13.8835 100.499 13.8835C101.863 13.8835 103.088 14.0682 104.175 14.4375C105.269 14.7997 106.195 15.3324 106.955 16.0355C107.715 16.7315 108.28 17.5874 108.649 18.603C109.026 19.6186 109.175 20.7798 109.097 22.0866ZM117.452 36.3089C115.726 36.3089 114.302 35.9538 113.18 35.2436C112.065 34.5334 111.28 33.5426 110.825 32.2713C110.371 31 110.282 29.5227 110.559 27.8395C110.836 26.1634 111.408 24.6932 112.274 23.429C113.141 22.1648 114.248 21.1811 115.598 20.478C116.947 19.7749 118.478 19.4233 120.19 19.4233C121.908 19.4233 123.325 19.7784 124.44 20.4886C125.562 21.1989 126.351 22.1896 126.805 23.4609C127.267 24.7322 127.359 26.2131 127.082 27.9034C126.805 29.5795 126.23 31.0497 125.356 32.3139C124.483 33.571 123.375 34.5511 122.033 35.2543C120.69 35.9574 119.163 36.3089 117.452 36.3089ZM118.038 32.3778C118.677 32.3778 119.248 32.1861 119.753 31.8026C120.264 31.419 120.694 30.8828 121.042 30.1939C121.39 29.505 121.638 28.706 121.788 27.7969C121.937 26.902 121.951 26.1172 121.83 25.4425C121.717 24.7607 121.475 24.2315 121.106 23.8551C120.736 23.4716 120.236 23.2798 119.604 23.2798C118.964 23.2798 118.389 23.4751 117.878 23.8658C117.366 24.2493 116.937 24.7855 116.589 25.4744C116.248 26.1562 116.003 26.9553 115.854 27.8714C115.704 28.7663 115.687 29.5511 115.8 30.2259C115.914 30.9006 116.159 31.4297 116.535 31.8132C116.912 32.1896 117.413 32.3778 118.038 32.3778ZM135.195 26.6676L133.639 36H128.43L131.157 19.6364H136.111L135.621 22.6406H135.802C136.313 21.6392 137.056 20.8544 138.029 20.2862C139.002 19.7109 140.095 19.4233 141.31 19.4233C142.453 19.4233 143.409 19.679 144.176 20.1903C144.943 20.7017 145.486 21.419 145.806 22.3423C146.125 23.2585 146.179 24.3345 145.965 25.5703L144.218 36H139.009L140.575 26.593C140.731 25.6911 140.621 24.9844 140.245 24.473C139.875 23.9545 139.272 23.6953 138.434 23.6953C137.887 23.6953 137.386 23.8161 136.931 24.0575C136.484 24.2919 136.108 24.6293 135.802 25.0696C135.504 25.5099 135.301 26.0426 135.195 26.6676ZM163.552 24.6328L158.853 24.7607C158.861 24.4126 158.782 24.1072 158.619 23.8445C158.456 23.5746 158.225 23.3651 157.927 23.2159C157.628 23.0668 157.273 22.9922 156.861 22.9922C156.194 22.9922 155.593 23.1413 155.061 23.4396C154.535 23.7379 154.241 24.125 154.177 24.6009C154.127 24.8565 154.198 25.0803 154.39 25.272C154.581 25.4567 155.008 25.62 155.668 25.7621L158.736 26.3587C160.313 26.6712 161.456 27.2145 162.167 27.9886C162.884 28.7557 163.14 29.7713 162.934 31.0355C162.749 32.1151 162.273 33.049 161.506 33.8374C160.746 34.6257 159.777 35.2365 158.598 35.6697C157.426 36.0959 156.13 36.3089 154.709 36.3089C152.309 36.3089 150.498 35.826 149.276 34.8601C148.062 33.8871 147.493 32.598 147.571 30.9929L152.642 30.8651C152.664 31.4687 152.866 31.9233 153.25 32.2287C153.64 32.527 154.169 32.6832 154.837 32.6974C155.569 32.7116 156.201 32.5589 156.733 32.2393C157.266 31.9197 157.564 31.5256 157.628 31.0568C157.671 30.7514 157.568 30.5135 157.319 30.343C157.078 30.1726 156.627 30.0199 155.966 29.8849L153.196 29.3416C151.606 29.0362 150.455 28.4609 149.745 27.6158C149.042 26.7635 148.8 25.6768 149.02 24.3558C149.205 23.3047 149.638 22.4134 150.32 21.6818C151.009 20.9432 151.907 20.3821 153.015 19.9986C154.13 19.6151 155.402 19.4233 156.829 19.4233C159.116 19.4233 160.842 19.8885 162.007 20.8189C163.179 21.7422 163.694 23.0135 163.552 24.6328ZM172.274 36.3089C170.562 36.3089 169.142 35.9716 168.013 35.2969C166.891 34.6151 166.102 33.6456 165.648 32.3885C165.193 31.1243 165.111 29.6222 165.403 27.8821C165.687 26.1918 166.266 24.7145 167.139 23.4503C168.02 22.179 169.128 21.1918 170.463 20.4886C171.798 19.7784 173.286 19.4233 174.927 19.4233C176.092 19.4233 177.125 19.6044 178.027 19.9666C178.929 20.3288 179.675 20.8686 180.264 21.5859C180.854 22.2962 181.255 23.1697 181.468 24.2067C181.681 25.2436 181.674 26.4332 181.447 27.7756L181.244 29.0753H167.033L167.512 26.0497H176.887C176.972 25.4957 176.926 25.0021 176.748 24.5689C176.571 24.1357 176.283 23.7983 175.886 23.5568C175.495 23.3082 175.016 23.1839 174.447 23.1839C173.872 23.1839 173.332 23.3189 172.828 23.5888C172.331 23.8516 171.908 24.2067 171.56 24.6541C171.212 25.1016 170.985 25.6058 170.878 26.1669L170.314 29.267C170.2 29.956 170.232 30.5455 170.41 31.0355C170.587 31.5256 170.893 31.902 171.326 32.1648C171.759 32.4205 172.317 32.5483 172.998 32.5483C173.453 32.5483 173.879 32.4879 174.277 32.3672C174.675 32.2393 175.03 32.0511 175.342 31.8026C175.662 31.5469 175.921 31.2379 176.12 30.8757L180.871 31.0142C180.488 32.0866 179.895 33.0206 179.092 33.8161C178.29 34.6044 177.31 35.2187 176.152 35.6591C175.001 36.0923 173.709 36.3089 172.274 36.3089ZM189.541 26.6676L187.985 36H182.776L185.503 19.6364H190.457L189.967 22.6406H190.148C190.659 21.6392 191.401 20.8544 192.374 20.2862C193.347 19.7109 194.441 19.4233 195.656 19.4233C196.799 19.4233 197.754 19.679 198.521 20.1903C199.288 20.7017 199.832 21.419 200.151 22.3423C200.471 23.2585 200.524 24.3345 200.311 25.5703L198.564 36H193.354L194.921 26.593C195.077 25.6911 194.967 24.9844 194.59 24.473C194.221 23.9545 193.617 23.6953 192.779 23.6953C192.232 23.6953 191.732 23.8161 191.277 24.0575C190.83 24.2919 190.453 24.6293 190.148 25.0696C189.85 25.5099 189.647 26.0426 189.541 26.6676ZM213.721 19.6364L213.071 23.4716H202.748L203.398 19.6364H213.721ZM206.2 15.7159H211.409L208.895 30.8544C208.845 31.174 208.853 31.4332 208.916 31.6321C208.987 31.8239 209.115 31.9624 209.3 32.0476C209.492 32.1257 209.726 32.1648 210.003 32.1648C210.195 32.1648 210.408 32.1435 210.642 32.1009C210.877 32.0582 211.054 32.0263 211.175 32.005L211.345 35.7656C211.068 35.8438 210.696 35.9325 210.227 36.032C209.765 36.1385 209.225 36.206 208.608 36.2344C207.358 36.2841 206.324 36.1385 205.507 35.7976C204.698 35.4496 204.126 34.9098 203.792 34.1783C203.465 33.4467 203.402 32.5305 203.6 31.4297L206.2 15.7159Z" fill="#062A57"/>
</svg>
